<svg xmlns="http://www.w3.org/2000/svg" viewBox="0 0 18 18" fill="none"><g>
<path d="M2.51466 11.1088L3.1225 10.9633L2.51466 11.1088ZM2.51466 6.62473L3.1225 6.77018L2.51466 6.62473ZM15.4853 6.62473L14.8775 6.77019L15.4853 6.62473ZM15.4853 11.1088L14.8775 10.9633L15.4853 11.1088ZM11.2872 15.2241L11.1471 14.615L11.2872 15.2241ZM6.71283 15.2241L6.57277 15.8332L6.71283 15.2241ZM6.71283 2.50943L6.85288 3.11854V3.11854L6.71283 2.50943ZM11.2872 2.50943L11.1471 3.11854V3.11854L11.2872 2.50943ZM2.51466 11.1088L3.1225 10.9633C2.7925 9.58429 2.7925 8.14924 3.1225 6.77018L2.51466 6.62473L1.90682 6.47928C1.53106 8.04957 1.53106 9.68395 1.90682 11.2542L2.51466 11.1088ZM15.4853 6.62473L14.8775 6.77019C15.2075 8.14924 15.2075 9.58429 14.8775 10.9633L15.4853 11.1088L16.0932 11.2542C16.4689 9.68395 16.4689 8.04957 16.0932 6.47928L15.4853 6.62473ZM11.2872 15.2241L11.1471 14.615C9.73492 14.9397 8.26508 14.9397 6.85288 14.615L6.71283 15.2241L6.57277 15.8332C8.1693 16.2003 9.8307 16.2003 11.4272 15.8332L11.2872 15.2241ZM6.71283 2.50943L6.85288 3.11854C8.26508 2.79382 9.73492 2.79382 11.1471 3.11854L11.2872 2.50943L11.4272 1.90033C9.8307 1.53322 8.1693 1.53322 6.57277 1.90033L6.71283 2.50943ZM6.71283 15.2241L6.85288 14.615C4.99582 14.188 3.55463 12.7692 3.1225 10.9633L2.51466 11.1088L1.90682 11.2542C2.45194 13.5323 4.2637 15.3023 6.57277 15.8332L6.71283 15.2241ZM11.2872 15.2241L11.4272 15.8332C13.7363 15.3023 15.5481 13.5323 16.0932 11.2542L15.4853 11.1088L14.8775 10.9633C14.4454 12.7692 13.0042 14.188 11.1471 14.615L11.2872 15.2241ZM11.2872 2.50943L11.1471 3.11854C13.0042 3.54555 14.4454 4.96433 14.8775 6.77019L15.4853 6.62473L16.0932 6.47928C15.5481 4.20124 13.7363 2.43127 11.4272 1.90033L11.2872 2.50943ZM6.71283 2.50943L6.57277 1.90033C4.26369 2.43127 2.45194 4.20124 1.90682 6.47928L2.51466 6.62473L3.1225 6.77018C3.55463 4.96432 4.99582 3.54555 6.85288 3.11854L6.71283 2.50943ZM10.5604 15.75H11.1854C11.1854 14.6504 11.1868 13.8898 11.2653 13.3173C11.3412 12.7641 11.4784 12.4806 11.6835 12.2795L11.246 11.8332L10.8084 11.3869C10.328 11.8578 10.1224 12.4511 10.0269 13.1475C9.93403 13.8246 9.93541 14.6864 9.93541 15.75H10.5604ZM15.2416 11.1612V10.5362C14.1556 10.5362 13.2794 10.5349 12.5917 10.6255C11.8872 10.7184 11.2872 10.9176 10.8084 11.3869L11.246 11.8332L11.6835 12.2795C11.8903 12.0768 12.1847 11.94 12.755 11.8648C13.3421 11.7875 14.1209 11.7862 15.2416 11.7862V11.1612Z" fill="currentColor"/>
<path d="M6.75 6.75H9M6.75 9H10.5" stroke="currentColor" stroke-width="1.25" stroke-linecap="round"/>
</g></svg>
